<svg width="222" height="224" viewBox="0 0 222 224" fill="none" xmlns="http://www.w3.org/2000/svg">
<path d="M82.1052 9H78C39.8924 9 9 39.8924 9 78V146C9 184.108 39.8924 215 78 215H144C182.108 215 213 184.108 213 146V78C213 39.8924 182.108 9 144 9H142.622C131.8 9 118.811 14.5 114.122 32C109.433 49.5 95.6223 102 94.6223 111C93.6223 120 90.1223 132 109.622 127.5L125.622 124.5M161.622 70V84.5M60.6223 70V84.5M53.6223 145C60.7889 154.167 81.9422 172 109.622 172C148.122 172 157.122 154.167 168.122 145" stroke="#FF8C00" stroke-width="18" stroke-linecap="round"/>
</svg>
