<svg width="253" height="224" viewBox="0 0 253 224" fill="none" xmlns="http://www.w3.org/2000/svg">
<path d="M49.7904 215.478C45.4462 223.081 35.7573 225.644 28.1534 221.3C20.5496 216.956 17.9868 207.267 22.3311 199.663L33.6273 180.111C46.4016 176.157 56.7845 179.198 64.9953 189.106L49.7904 215.478Z" fill="#0C57EF"/>
<path d="M159.622 172.813H15.8147C7.03905 172.813 0 165.777 0 156.999C0 148.223 7.03905 141.184 15.8147 141.184H56.1326L107.747 51.7275L91.6285 23.7484C87.2842 16.1445 89.8469 6.54274 97.4508 2.11137C105.055 -2.23288 114.656 0.329834 119.088 7.93369L125.995 20.1431L133.034 7.97866C137.378 0.374796 147.067 -2.18793 154.671 2.15633C162.275 6.50059 164.837 16.1895 160.493 23.7933L92.671 141.187H141.722C157.621 141.187 166.529 159.868 159.622 172.813Z" fill="#0C57EF"/>
<path d="M237.085 172.9H214.234L229.658 199.663C234.003 207.267 231.44 216.868 223.836 221.3C216.232 225.644 206.631 223.081 202.199 215.477C176.218 170.425 156.711 136.71 143.765 114.247C130.513 91.3935 139.986 68.4554 149.326 60.6774C159.709 78.49 175.22 105.384 195.944 141.271H237.088C245.864 141.271 252.903 148.31 252.903 157.086C252.9 165.861 245.861 172.9 237.085 172.9Z" fill="#0C57EF"/>
</svg>
