<svg width="213" height="196" viewBox="0 0 213 196" fill="none" xmlns="http://www.w3.org/2000/svg">
<path d="M168.322 195.987C165.585 196.071 162.513 195.737 159.441 195.083C150.354 193.101 142.635 188.984 136.704 181.686C133.096 177.235 130.063 172.412 127.449 167.339C124.377 161.362 121.809 155.135 119.569 148.831C116.833 141.206 114.509 133.413 112.721 125.538C111.728 121.126 112.844 118.362 117.743 116.842C123.964 114.905 130.231 113.173 136.62 111.769C147.198 109.46 157.86 107.979 168.735 108.344C171.807 108.466 174.872 108.799 177.906 109.332C186.702 110.858 194.169 114.898 200.268 121.286C210.685 132.169 214.828 145.156 212.26 159.958C208.568 181.109 189.729 196.154 168.322 195.987ZM150.774 44.3592C150.896 47.4504 150.315 50.8302 149.36 54.21C147.534 60.6424 144.507 66.5362 140.938 72.1029C132.806 84.7626 122.557 95.601 111.437 105.663C110.527 106.491 109.443 107.19 108.281 107.722C107.12 108.299 105.958 108.299 104.757 107.805C103.596 107.312 102.557 106.613 101.685 105.702C97.8259 101.912 94.0117 98.115 90.3588 94.1965C85.215 88.6298 80.3165 82.9028 75.8763 76.7589C71.849 71.1922 68.2413 65.3369 65.5888 58.9878C62.9362 52.6772 61.6455 46.1678 62.5167 39.3248C63.9689 28.0311 68.8222 18.4626 77.4962 10.9591C87.7514 2.10241 99.6975 -1.44411 113.141 0.53117C135.007 3.75061 150.857 22.8813 150.774 44.3592ZM42.9873 195.744C41.9095 195.705 39.9604 195.744 38.0114 195.455C24.9035 193.518 14.5321 187.208 7.22636 176.164C1.50177 167.468 -0.821642 157.816 0.256156 147.471C1.25005 137.781 5.19341 129.29 11.8732 122.158C17.6817 115.976 24.6131 111.685 32.9902 109.87C37.5983 108.883 42.2838 108.466 46.9693 108.389C52.5261 108.306 58.0442 108.799 63.5235 109.543C74.4758 111.07 85.1828 113.667 95.7155 116.963C96.7933 117.291 97.7872 117.791 98.6585 118.49C99.7814 119.394 100.401 120.51 100.401 121.953C100.401 123.191 100.278 124.428 99.988 125.666C99.3232 128.142 98.7424 130.611 98.0776 133.048C95.0056 144.181 91.2752 155.065 86.1702 165.454C83.2272 171.431 79.8196 177.081 75.4632 182.154C72.1459 185.989 68.2865 189.119 63.6784 191.306C57.3794 194.301 50.8288 195.91 42.9873 195.744Z" fill="#FF7C7C"/>
</svg>
