<svg width="2881" height="2106" viewBox="0 0 2881 2106" fill="none" xmlns="http://www.w3.org/2000/svg">
<path d="M1984.36 1148.62C1985.62 1146.3 1987.63 1143.72 1989.74 1141.3L1989 1142.48C1992.81 1137.8 1997.34 1133.02 2000.42 1128.15C2020.46 1096.49 2029.51 1085.71 2047.64 1057.17C2065.52 1029.34 2100.81 962.919 2127.44 922.559C2127.46 922.513 2127.54 922.378 2127.56 922.333C2142.13 900.616 2154.7 887.92 2161.06 891.969C2161.06 891.969 2161.06 891.97 2161.06 891.97C2161.26 892.07 2161.45 892.182 2161.64 892.307C2165.5 894.398 2163.58 907.589 2166.84 911.714C2170.19 915.733 2198.22 929.614 2191.38 946.087C2190.36 948.485 2189.08 951.162 2187.6 954.055L2187.7 953.874C2174.42 980.55 2143.48 1024.07 2137.49 1035.28C2133 1043.86 2129.64 1055.66 2123.94 1066.68C2105.51 1102.19 2093.06 1119.06 2081.21 1153.84C2071.5 1162.93 2061.76 1171.97 2052 1180.98C2051.93 1181.1 2051.71 1181.45 2051.64 1181.56C2050.42 1182.61 2049.19 1183.67 2047.95 1184.76C2039.33 1201.47 2019.26 1222.17 2013.26 1231.78C2008.32 1239.69 2008.01 1246 2002.76 1254.18C1996.89 1263.35 1984.76 1275.31 1974.18 1292.05C1956.82 1319.45 1960.54 1328.95 1950.5 1345.69C1940.07 1363.06 1918.58 1386.44 1906.22 1409.35C1905.09 1412.6 1904.05 1415.71 1902.9 1418.96C1905.99 1418.19 1908.99 1417.56 1912.06 1416.82C1907.48 1424.55 1902.77 1428.08 1898.08 1432.59C1895.89 1434.73 1893.81 1436.91 1891.57 1440.02C1883.27 1451.51 1882.3 1459.77 1876.56 1467.56C1871.83 1473.97 1862.76 1480.68 1856.39 1489.14C1847 1501.44 1852.68 1501.79 1847.83 1508.98C1847.1 1511.15 1818.02 1544.59 1803.73 1555.94C1800.55 1558.78 1798.39 1560.7 1797.89 1561.12C1778.79 1577.02 1773.01 1573.45 1757.14 1585.62C1740.83 1598.09 1724.81 1611.4 1707.89 1624.79C1689.4 1638.01 1678.03 1652.31 1641.19 1663.99C1626.36 1667.89 1611.67 1671.02 1597 1673.22C1571.78 1676.64 1545.58 1678.64 1513.54 1671.04C1539.43 1667.14 1525.45 1658.12 1511.55 1652.36C1498.14 1647.31 1474.47 1634.76 1493.21 1660.64C1488.66 1658.1 1483.91 1655.12 1479.16 1651.33C1465.74 1639.95 1443.42 1630.82 1427.31 1612.81C1415.37 1599.54 1410.26 1588.38 1395.64 1569.77C1370.02 1536.95 1338.31 1504.46 1347.97 1485.1C1345.78 1482.04 1343.64 1478.9 1341.55 1475.72C1318.74 1441.2 1304.79 1408.93 1284.17 1403.17C1277.24 1393.36 1270.31 1361.94 1264.89 1349.42C1262.99 1345.01 1255.34 1329.55 1246.76 1310.68C1242.48 1301.23 1237.93 1290.86 1233.83 1280.1C1229.95 1268.48 1225.23 1260.53 1224.66 1240.35C1225.29 1229.59 1225.8 1220.85 1226 1216.94C1226.56 1200.71 1229.26 1171.44 1230.31 1157.1C1231.45 1139.63 1217.34 1121.61 1246.05 1096.52C1246.76 1094.03 1247.45 1091.71 1248.16 1089.44C1257.07 1060.86 1262.02 1049.06 1275.18 1021.43C1277.77 1016.05 1280.68 1016.65 1282.02 1013.36C1284.71 1006.74 1287.36 994.683 1292.35 982.836C1300.64 963.175 1311.84 955.116 1302.33 953.038C1307.31 939.605 1312.91 926.034 1319.66 912.496C1323.99 909.067 1328.45 905.663 1333.04 902.353C1336.11 894.654 1339.71 886.833 1344.02 879.036C1345.87 887.282 1354.71 878.876 1362.4 870.268C1369.96 861.627 1377.07 852.046 1366.06 855.282C1379.3 846.635 1394.53 839.815 1410.03 836.129C1423.86 833.142 1438.34 830.044 1452.84 827.452C1453.01 842.661 1511.67 814.789 1506.08 808.274C1509.43 807.742 1512.74 807.266 1516.18 806.837C1531.45 807.105 1546.03 805.949 1564.99 809.007C1574.41 810.759 1585.6 813.489 1597.6 822.305C1609.82 830.827 1619.4 848.27 1620.23 862.99C1620.23 863.02 1620.23 863.049 1620.23 863.079C1620.43 903.079 1616.59 896.732 1609.45 907.262C1609.34 915.168 1609.03 922.995 1608.58 930.813C1622.64 973.966 1591.16 961.922 1592.39 1031.91C1579.19 1047.12 1572.79 1084.68 1567.27 1117.28C1565.94 1125.25 1564.68 1132.93 1563.44 1139.91C1562.7 1144.05 1564.96 1144.79 1564.09 1150.35C1562.09 1164.04 1548.16 1196.32 1555.68 1197.67C1549.6 1208.49 1543.33 1219.15 1536.88 1229.64C1534.61 1239.37 1532.18 1249.08 1529.63 1258.76C1531.86 1259.64 1534.08 1260.52 1536.31 1261.4C1531.05 1266.68 1526.46 1273.64 1522.32 1281.03C1514.44 1295.11 1508.1 1310.83 1502.57 1319.39C1500.88 1321.97 1497.64 1321.15 1492.66 1329.29C1486.84 1338.8 1478.35 1357.66 1471.21 1368.83C1472.03 1375.09 1472.82 1381.35 1473.55 1387.65C1463.84 1409.52 1451.21 1411.97 1443.58 1423.56C1442.5 1425.33 1426.62 1452.69 1420.23 1463.15C1418.93 1465.31 1418.07 1466.76 1417.88 1467.13C1408.44 1484.82 1418.94 1484.66 1385.14 1532.16C1379.06 1540.59 1371.94 1545.91 1366.45 1553.54C1357.08 1567.1 1331.62 1611.3 1333.22 1618.24C1323.75 1624 1310.64 1638.06 1296.92 1651.61C1284.21 1664.17 1272.1 1676.68 1265.63 1681.54C1261.73 1684.45 1257.68 1681.87 1246.27 1691.42C1237.13 1699.19 1216.4 1723.14 1203.01 1732.52C1188.97 1742.51 1181.3 1742.62 1174.51 1746.62C1168 1750.33 1163.55 1756.77 1153.29 1761.42C1138.23 1768.15 1120.06 1771.89 1101.91 1769.09C1087.74 1765.84 1071.12 1765.45 1052.13 1749.19C1048.83 1746.05 1045.83 1742.24 1043.56 1738.18C1026.79 1706.92 1013.18 1683.06 1002.86 1657.92C1001.86 1650.9 1002.38 1643.72 1000.92 1636.63C989.702 1581.74 982.264 1522.92 976.621 1465.04C973.214 1429.84 970.229 1394.96 967.733 1361.57C964.373 1320.74 969.349 1218.4 949.951 1247.11C944.796 1233.18 946.953 1129.16 946.544 1109.46C946.252 1101.9 945.421 1094.99 944.473 1088.42C942.95 1077.89 941.124 1068.33 940.782 1058.77C939.188 1011.98 941.329 979.07 937.837 922.182C936.94 907.477 932.435 891.686 932.562 882.978C932.723 872.446 937.286 861.248 937.788 847.639C938.844 815.302 939.262 754.78 941.774 723.598C942.223 717.891 946.218 716.101 947.902 708.044C949.348 701.142 950.593 694.006 951.527 687.272C954.84 663.021 954.527 642.025 944.372 646.077C955.256 605.753 954.261 565.891 964.282 526.626C966.518 517.794 969.212 508.326 972.154 498.634C982.587 466.214 991.115 427.985 1013.42 382.844C1041.64 330.543 1073.12 280.774 1109.87 248.831C1130.18 231.857 1149.27 221.005 1176.17 220.305C1180.17 220.437 1187.24 219.116 1202.63 224.892C1210.16 227.863 1220.65 234.545 1227.84 244.776C1235.14 254.917 1237.88 265.827 1238.68 273.713C1240.34 292.535 1238.66 306.532 1234.66 328.932C1231.76 344.176 1228.03 358.733 1223.4 376.342C1212.48 417.469 1192.66 451.12 1195.49 484.941C1188.64 503.001 1182.84 519.483 1176.79 534.746C1168.47 555.623 1160.07 574.18 1147.71 590.387C1148.78 594.981 1149.85 599.549 1150.93 604.078C1149.1 609.373 1147.31 614.483 1145.45 619.766C1142.57 620.555 1139.7 621.333 1136.83 622.098C1122.67 658.973 1113.6 709.775 1098.63 741.602C1090.99 757.409 1080.71 780.137 1060.69 807.166C1017.22 864.536 948.746 916.763 916.215 937.541C891.719 953.27 893.229 958.247 873.582 958.625C868.625 962.826 863.632 966.976 858.645 971.053C857.293 973.695 855.912 976.345 854.503 979.001C853.725 980.493 852.942 981.985 852.154 983.478C820.862 1003.23 780.994 1021.57 749.369 1037.31C731.075 1046.44 709.839 1057.17 686.299 1067.23C635.436 1089.14 577.538 1103.85 535.266 1110.13C519.646 1112.44 499.583 1111.84 484.801 1115.28C463.332 1120.32 459.976 1129.25 433.436 1136.37C428.847 1137.63 423.884 1138.91 418.551 1140.26C367.382 1154.13 286.25 1160.89 243.194 1163.95C229.009 1165.19 222.526 1168.45 212.442 1169.11C170.51 1171.46 136.431 1170.02 92.9241 1165.35C48.6615 1145.79 56.4557 1134.45 49.0235 1119.39C46.4015 1113.45 40.6638 1100.72 43.3704 1091.22C46.2462 1081.51 54.714 1082.4 57.5907 1083.02C59.8809 1083.6 61.9804 1085.43 64.6502 1086.08C67.2699 1086.86 70.2516 1086.38 72.4613 1088.06C74.122 1085.15 73.3791 1078.63 72.406 1076.92C71.5209 1074.9 71.733 1075.49 72.972 1076.4C75.4482 1078.39 80.3944 1081.55 85.552 1084.43C96.2059 1090.33 108.399 1096.57 125.677 1103C192.863 1112.71 265.3 1105.69 334.555 1091.54C341.566 1092.97 348.334 1094.37 355.382 1095.64C355.383 1095.65 355.384 1095.65 355.386 1095.66C379.534 1093.02 389.802 1084.81 401.269 1079.09C403.029 1078.23 404.812 1077.42 406.667 1076.69C471.625 1049.42 572.108 1036.14 661.167 1003C715.53 982.054 770.815 952.94 819.725 923.802C863.202 897.832 901.269 870.388 930.613 845.034C946.349 831.753 981.521 796.383 1003.96 765.375C1016.24 748.469 1025.89 729.181 1031.15 722.459C1034.79 717.637 1039.37 718.019 1042.2 712.329C1063.37 659.482 1080.58 603.857 1097.51 548.269C1102.42 536.453 1107.18 524.489 1111.83 512.388C1139.94 438.515 1162.09 351.539 1160.86 281.595C1160.97 282.847 1161.33 285.453 1163.3 288.787C1165.2 292.131 1168.83 295.106 1171.18 296.214C1173.59 297.413 1174.72 297.512 1174.89 297.59C1175.06 297.637 1174.41 297.586 1173.04 297.565C1169.32 296.922 1155.54 304.367 1144.48 315.79C1118.12 342.26 1095.8 379.505 1076.35 416.415C1062.39 444.606 1052.56 483.21 1041.57 519.787C1024.29 575.036 1018.79 631.851 1015.07 691.597C1007.82 822.437 1008.4 954.883 1013.38 1085.68C1015.35 1134.55 1018.21 1183.38 1021.69 1232.16C1026.01 1293.87 1036.67 1371.69 1041.36 1432.14C1042.13 1442.11 1041.73 1449.91 1041.49 1457.59C1041.16 1469.6 1041.2 1481.3 1046.88 1500.77C1045.08 1501.36 1043.27 1501.96 1041.47 1502.55C1047.52 1530.9 1054.28 1548.42 1060.07 1579.89C1064.48 1606.52 1079.91 1675.76 1087.5 1694.93C1091.02 1704.95 1086.38 1703 1090.25 1711.07C1090.5 1711.56 1090.76 1712.03 1091.02 1712.48C1090.5 1711.35 1089.39 1709.94 1088.83 1709.34C1088.25 1708.7 1088.51 1708.77 1089.89 1708.96C1092.64 1709.41 1099.13 1709.81 1106.83 1709.8C1112.73 1709.38 1122.17 1705.58 1130.76 1701.17C1147.71 1693.54 1181.29 1670.59 1194.4 1657.33C1211.51 1640.52 1228.47 1621.62 1245.64 1602.1C1273.74 1569.62 1299.63 1530.19 1326.56 1492.32C1338.2 1475.98 1356.1 1456.56 1359.42 1451.13C1365.29 1441.51 1364.4 1436.09 1367.16 1429.68C1367.44 1429.04 1367.75 1428.39 1368.1 1427.73C1388.08 1391.17 1424.14 1336.95 1442 1300.05C1449.31 1285.23 1456.37 1270.15 1463.14 1254.87C1484.91 1206.18 1502.18 1156.06 1515.82 1103.51C1532.53 1039.41 1546.77 974.086 1552.94 912.884C1554.19 899.564 1555.1 882.831 1553.75 872.213C1553.74 872.118 1553.87 872.971 1554.54 874.184C1555.18 875.391 1556.38 876.669 1557.03 877.129C1558.52 878.073 1556.54 876.663 1552.39 876.118C1543.94 874.768 1530.1 875.676 1516.39 877.95C1488.44 882.548 1458.96 891.526 1431.18 900.296C1414 905.371 1400 917.618 1388.43 930.901C1379.16 941.976 1377.48 936.201 1370.41 947.072C1362.69 959.527 1361.88 968.285 1358.88 974.559C1344.73 1003.67 1323.73 1061.34 1306.78 1110.18C1299.1 1131.9 1294.48 1152.01 1291.18 1166.22C1289.25 1174.42 1284.82 1180.18 1284.31 1185.34C1284.05 1187.95 1286.04 1194.05 1285.8 1202.33C1285.41 1215.58 1285.48 1228.48 1285.43 1241.5C1285.47 1239.87 1285.38 1239.91 1285.5 1240.31C1285.6 1240.74 1285.82 1241.58 1286.14 1242.62C1286.74 1244.61 1287.72 1247.31 1288.75 1249.91C1290.9 1255.31 1293.53 1261.12 1296.27 1266.89C1301.8 1278.51 1307.88 1290.28 1314.14 1302.1C1326.76 1325.91 1340.17 1350.05 1355.63 1377.04C1368.11 1398.8 1381.25 1420.94 1394.91 1443.55C1430.72 1500.88 1465.56 1557.88 1522.79 1593.56C1522.25 1593.56 1530.15 1596.58 1538.3 1597.28C1546.7 1598.24 1556.32 1598.34 1566.07 1597.92C1585.64 1597.03 1606.08 1594.18 1625.73 1590.25C1629.63 1589.87 1645.33 1581.14 1657.02 1573.04C1682.81 1555.38 1705.29 1546.18 1708.86 1543.36C1716.73 1536.82 1718.66 1528.82 1734.01 1514.65C1740.54 1508.63 1747.48 1502.46 1754.75 1496.18C1785.99 1470.7 1814.71 1431.22 1842.33 1393.15C1854.1 1376.7 1865.04 1360.67 1874.39 1345.87C1891.79 1318.36 1911.58 1277.66 1928.22 1250.23C1941.56 1228.33 1977 1179.24 1980.84 1168.21C1983.18 1161.58 1980.41 1155.91 1984.36 1148.62ZM1384.19 1547.28C1393.81 1546.35 1359.93 1509.14 1366.52 1527.24C1367.83 1531.22 1381.67 1547.74 1384.19 1547.28ZM996.359 1516.84C993.966 1517.6 991.573 1518.37 989.18 1519.14C991.059 1525.36 992.944 1531.45 994.881 1537.7C995.832 1533.86 996.819 1530.2 997.799 1526.44C997.314 1523.25 996.822 1519.96 996.359 1516.84Z" fill="#FC6868"/>
<path d="M1868.58 1066.9C1870.41 1074.21 1870.2 1084.47 1869.48 1092.61C1869.26 1095.13 1866.45 1094.28 1866.19 1096.08C1865.69 1099.58 1867.48 1102.47 1866.86 1106.02C1866.64 1107.18 1862.27 1106.56 1862.13 1107.76C1861.44 1114.48 1863.69 1120.34 1864.22 1126.98C1866.1 1150.23 1870.84 1172.94 1877.35 1195.51C1879.75 1204 1882.99 1213.02 1886.53 1222.17C1890.48 1232.41 1893.14 1246.45 1900.02 1256.17C1900.82 1257.29 1903.73 1254.88 1904.12 1254.97C1910.11 1256.44 1902.88 1258.66 1903.24 1261.5C1904.69 1272.73 1910.04 1283.39 1916.25 1291.74C1918.9 1295.29 1923.19 1287.9 1921.73 1293.76C1921.63 1294.16 1917.67 1295.08 1917.89 1296.33C1918.37 1299.15 1921.52 1303.38 1922.27 1305.36C1923.73 1309.23 1924.1 1309.81 1925.95 1313.2C1928.48 1317.87 1929.89 1324.3 1933.48 1328.78C1934.26 1329.74 1936.94 1326.35 1938.49 1327.69C1940.05 1329.05 1942.29 1333.62 1942.34 1335.61C1942.39 1337.58 1939.29 1338.52 1938.82 1339.14C1934.78 1344.35 1945.09 1345.29 1945.64 1345.83C1955.7 1356.06 1957.6 1368.79 1964.28 1380.05C1967.91 1386.15 1972.41 1392.11 1976.4 1398.04C1977.98 1400.39 1979.49 1402.74 1980.83 1405.08C1986.37 1414.79 1989.48 1424.03 1995.55 1433.08C1996.19 1434.04 1999.48 1430.41 2000.27 1431.57C2008.61 1443.92 2016.1 1456.67 2021.5 1470.88C2022.04 1472.31 2017.51 1472.94 2017.85 1474.5C2019.93 1484.01 2021.08 1500.65 2039.12 1495.23C2041.93 1500.77 2045.49 1507.42 2045.55 1514.03C2045.59 1518.29 2039.91 1517.93 2043.96 1520.51C2044.87 1521.09 2047.43 1517.82 2048.55 1518.86C2053.22 1523.22 2055.99 1529.59 2061.16 1533.55C2062.22 1534.35 2064.95 1532.07 2065.68 1532.01C2071.61 1531.55 2067.39 1540.49 2067.49 1541.73C2068.37 1551.17 2073.3 1555.1 2077.61 1561.49C2078.61 1562.97 2081.3 1558.52 2082.4 1559.85C2088.06 1566.78 2093.01 1574.52 2096.35 1582.88C2097.07 1584.73 2092.74 1585.63 2092.92 1586.63C2093.78 1591.08 2100.53 1587.36 2101.46 1591.51C2101.67 1592.39 2098.58 1594.02 2098.35 1594.37C2094.88 1599.78 2102.96 1596.51 2103.46 1596.89C2110.02 1601.66 2105.71 1610.78 2111.12 1616.08C2111.77 1616.71 2114.14 1612.51 2115.75 1614.42C2119.16 1618.45 2122.48 1622.73 2125.58 1627.1C2132.28 1636.53 2138.27 1646.6 2143.26 1656.86C2144.4 1659.19 2140.69 1659.8 2140.47 1660.18C2137.09 1666.15 2144.81 1662.2 2145.58 1662.67C2151.44 1666.36 2149.77 1675.63 2160.4 1672.62C2175.25 1696.3 2197.54 1712.68 2210.46 1738.3C2210.63 1738.62 2207.23 1741.15 2207.6 1741.78C2211.94 1749.37 2215.38 1743.61 2224.84 1741.68C2227.2 1741.18 2223.65 1751.06 2223.45 1751.83C2222.66 1754.66 2217.35 1758.22 2217.34 1758.9C2217.44 1764.41 2231.07 1748.95 2234.78 1752.37C2234.88 1752.51 2231.81 1754.84 2231.87 1755.41C2232.04 1757.18 2234.04 1756.96 2234.12 1758.81C2234.28 1763.04 2228.38 1771.21 2235.71 1769.95C2236.64 1769.77 2243.77 1760.47 2246.79 1763.88C2247.99 1765.25 2254.16 1770.36 2255.38 1772.39C2256.6 1774.42 2252.98 1776.29 2253 1776.51C2254.41 1784.26 2251.31 1784.33 2248.92 1791.97C2246.58 1799.6 2257.17 1785.6 2259.38 1784.9C2261.58 1784.2 2262.41 1790.23 2262.36 1792.03C2262.3 1793.84 2259.72 1794.81 2259.97 1796.06C2261.68 1804.3 2267.69 1791.14 2271.1 1790.33C2279.13 1788.37 2274.04 1800.94 2276.9 1804.84C2277.67 1805.89 2278.7 1802.93 2279.75 1803.41C2283.86 1805.31 2283.48 1810.16 2289.71 1810.3C2290.74 1810.33 2298.73 1806.63 2297.3 1812.77C2297.09 1813.65 2294.28 1815.57 2295.33 1817.3C2295.86 1818.16 2296.62 1819.15 2297.52 1820.12C2299.23 1821.99 2301.56 1823.84 2303.57 1824.43C2305.84 1825.12 2306.96 1819.31 2308.23 1822.31C2308.79 1823.65 2305.08 1824.79 2306.29 1827.08C2307.48 1829.37 2312.4 1832.76 2314.34 1834C2316.24 1835.22 2317.58 1831.2 2317.89 1831.09C2319.68 1830.45 2324.36 1831.36 2324.66 1831.57C2340.66 1842.19 2351.87 1857.75 2369.02 1866.08C2370.36 1866.74 2371.83 1862.61 2372.06 1862.67C2377.3 1863.9 2367.81 1871.3 2368.77 1876.43C2373 1868.85 2373.91 1871.3 2377.45 1872.42C2379.16 1872.95 2380.16 1869.61 2380.48 1869.41C2385.36 1866.47 2383.34 1872.98 2383.02 1874.36C2381.81 1879.46 2386.49 1875.49 2385.71 1878.9C2384.94 1882.3 2380.09 1885.01 2383.05 1886.79C2385.51 1884.68 2387.65 1876.45 2390.56 1876.73C2401.51 1877.74 2413.79 1892.77 2420.23 1897.46C2426.64 1902.13 2429.12 1902.96 2432.49 1906.31C2438.57 1912.34 2439.07 1905.63 2444.91 1905.92C2450.77 1906.23 2441 1917.62 2440 1920.73C2438.99 1923.84 2441.36 1921.44 2441.24 1923.41C2441.12 1925.37 2438.32 1926.21 2439.82 1927.88C2441.34 1929.55 2449.25 1927.69 2451.61 1925.22C2456.6 1919.99 2458.12 1912.3 2461.64 1917.42C2461.84 1917.72 2458.94 1920.52 2459.81 1921.49C2462.36 1924.28 2465.16 1926.78 2468 1929.17C2472.96 1933.32 2478.14 1937.16 2482.71 1941.75C2483.7 1942.75 2480.48 1945.88 2481.03 1946.51C2486.78 1953.02 2487.91 1945.25 2495.8 1940.43C2489.58 1949.29 2488.48 1956.28 2493.92 1959.42C2497.2 1961.31 2498.93 1956.88 2502.68 1955.17C2503.8 1954.66 2504.54 1958.77 2506.04 1957.07C2510.95 1951.5 2512.7 1943.22 2516.72 1949.12C2516.89 1949.39 2514.2 1952.43 2514.94 1953.11C2519.69 1957.51 2523.96 1951.21 2530.34 1953.59C2535.32 1955.44 2541.49 1963.89 2546.54 1967.3C2540.9 1978.04 2547.32 1978.19 2553.13 1971.74C2556.47 1973.8 2560.48 1975.25 2563.38 1977.95C2564.38 1978.87 2562.07 1981.66 2562.06 1982.07C2561.74 1988.53 2566.83 1981.95 2567.73 1982.03C2577.32 1983.18 2581.54 1991.93 2592.02 1990.02C2592.39 1989.95 2596.28 1982.47 2595.9 1989.03C2595.87 1989.48 2591.67 1991.81 2595.32 1993.75C2598.95 1995.69 2604.32 2002.95 2611.13 2001.59C2612.75 2001.28 2618.41 1996.51 2619.14 2001.99C2619.16 2002.1 2619.17 2002.21 2619.18 2002.33C2619.25 2003.14 2617.94 2005.22 2617.92 2006.67C2617.9 2011.3 2622.04 2003.79 2621.2 2011.27C2620.35 2018.74 2622.35 2025.41 2629.64 2022.95C2629.87 2022.89 2633.65 2017.13 2635.3 2017.9C2637.95 2019.14 2641.3 2021.96 2644.16 2023.02C2645.53 2023.53 2646.17 2019.28 2646.43 2019.3C2656.4 2020.64 2661.58 2026.59 2670.9 2031.73C2672.61 2032.69 2679.74 2029.2 2681.72 2034.71C2683.91 2040.74 2673.01 2058.71 2683.64 2057.27C2687.94 2056.7 2701.03 2033.63 2703.09 2048.63C2716.71 2049.73 2726.22 2060.15 2740.38 2059.6C2741.02 2059.58 2745 2053.19 2746.3 2053.7C2748.25 2054.48 2748.32 2058.06 2749.67 2058.72C2755.28 2061.51 2761.51 2060.42 2767.09 2062.47C2767.14 2062.49 2767.2 2062.51 2767.26 2062.53C2769.41 2063.34 2767.65 2066.49 2770.2 2067.44C2772.78 2068.39 2775.8 2064.44 2778.72 2067.6C2780.93 2070 2781.06 2079.88 2784.37 2081.94C2787 2072.97 2789.4 2073.84 2794.4 2072.63C2795.36 2072.4 2795.31 2069.01 2795.81 2068.74C2797.86 2067.56 2798.63 2070.55 2800.64 2069.19C2801.12 2068.87 2801.96 2065.79 2802.4 2065.35C2806.14 2061.48 2808.58 2069.52 2809.01 2070.92C2810.63 2076.24 2812.98 2072.55 2814.68 2074.9C2816.38 2077.26 2812.59 2078.72 2814.84 2080.45C2819.51 2084.03 2826.41 2085.17 2831.72 2086.56C2833.84 2087.1 2833.35 2082.61 2833.68 2082.59C2838.31 2082.56 2841.78 2088 2846.09 2080.27C2844.33 2102.36 2849.21 2078.79 2854.54 2084.47C2854.96 2084.92 2853.37 2095.2 2851.12 2096.27C2848.88 2097.33 2846.68 2093.52 2843.5 2095.24C2842.75 2095.64 2836.99 2104.31 2836.35 2104.77C2831.44 2108.37 2834.37 2093.12 2834.36 2092.25C2834.14 2082.76 2827.36 2091.93 2826.03 2092.36C2819.94 2094.32 2815.94 2091.09 2810.93 2092.28C2807.63 2093.03 2804.88 2102.81 2802.63 2101.92C2795.21 2098.95 2796.24 2084.57 2785.89 2094.5C2783.66 2096.6 2782.27 2107.74 2779.04 2097.8C2778.84 2097.17 2776.91 2088.34 2773.19 2092.54C2772.72 2093.07 2771.85 2096.18 2771.38 2096.33C2768.28 2097.28 2767.23 2094.3 2764.04 2094.66C2761.99 2094.88 2759.69 2095.28 2757.48 2095.01C2756.23 2094.86 2755.03 2094.49 2753.95 2093.75C2752.18 2092.54 2751.42 2086.02 2750.91 2084.32C2749.54 2079.46 2744.68 2085.27 2744.58 2079.84C2744.47 2074.4 2749.95 2067.87 2746.7 2063.36C2744.06 2071.34 2741.14 2079.47 2738.37 2087.46C2729.01 2084.25 2720.61 2078.69 2711.12 2075.95C2709.94 2075.61 2709.71 2080.3 2708.41 2080.05C2702.9 2078.98 2699.33 2074.38 2693.47 2073.73C2688.94 2073.25 2682.74 2076.16 2677.92 2075.75C2678.41 2065.73 2670.82 2066.5 2666.39 2063.96C2664.83 2063.07 2665.82 2060.7 2664.93 2059.48C2661.57 2054.96 2660.72 2063.7 2659.05 2064.51C2651.84 2067.94 2658.06 2049.73 2651.8 2047.9C2651.48 2047.8 2643.9 2055.9 2643.12 2056.29C2638.16 2058.86 2643.81 2052.73 2641.91 2051.2C2638.44 2048.39 2636.59 2045.05 2630.86 2046.04C2629.19 2046.34 2623.59 2051.01 2622.78 2045.36C2622.68 2044.62 2624.12 2041.55 2623.92 2041.26C2620.14 2036.19 2616.04 2046.01 2611.79 2048.18C2607.54 2050.35 2605.87 2041.71 2605.79 2039.38C2605.54 2033.34 2608.49 2037.97 2608.82 2037.52C2612.56 2032.48 2609.46 2031.96 2607.23 2030.62C2607.11 2030.54 2606.99 2030.47 2606.88 2030.39C2610.54 2020.6 2606.91 2019.76 2604.54 2028.85C2604.29 2029.85 2606.57 2029.75 2606.88 2030.39C2600.79 2038.96 2596.44 2038.56 2596.04 2027.97C2595.86 2023.01 2599.76 2019 2593.15 2018.23C2590.15 2017.86 2588.3 2024.9 2585.15 2025.66C2577.93 2027.39 2573.67 2018.11 2567.73 2016.53C2565.57 2015.96 2565.87 2020.43 2564.33 2020.16C2560.22 2019.43 2558.28 2015.25 2553.99 2014.89C2553.6 2014.86 2552.63 2018.96 2551.47 2018.46C2542.64 2014.77 2536.35 2008.72 2527.54 2004.14C2523.28 2001.94 2514.62 1999.98 2510.45 1997.24C2503.17 1992.51 2496.83 1982.21 2489.76 1979.93C2485.13 1978.41 2484.05 1982.52 2480.88 1983.96C2474.74 1986.76 2473.5 1974.82 2473.45 1973.05C2473.45 1973 2477.47 1974.17 2476.63 1971.26C2477.73 1966.81 2473.5 1973.06 2473.45 1973.05C2473.39 1971.9 2466.79 1967.01 2465.01 1966.88C2464.03 1966.81 2462.49 1970.43 2462.02 1970.33C2456.59 1969.12 2451.51 1967.42 2446.68 1965.12C2441.63 1962.72 2436.85 1959.66 2432.49 1955.96C2432.36 1955.79 2434.85 1952.19 2434.53 1951.85C2430.08 1946.93 2423.86 1949.43 2417.73 1949.45C2411.61 1949.47 2408.59 1946.4 2409.81 1938.38C2405.94 1937.15 2402.81 1931.36 2401.07 1927.95C2399.34 1924.53 2394.52 1931.55 2394.18 1931.54C2383.72 1931.44 2381.83 1924.57 2374.31 1919C2370.74 1916.34 2362.63 1912.72 2358.05 1910.92C2354.44 1909.53 2353.55 1906.61 2349.92 1905.8C2349.42 1905.68 2347.79 1909.14 2347.59 1909.18C2341.83 1910.88 2348.42 1904.1 2348.62 1902.27C2349.4 1895.63 2349.61 1891.96 2343.88 1891.62C2342.56 1891.54 2332.46 1900.87 2330.25 1900.36C2327.39 1899.68 2330.88 1896.25 2327.83 1895.63C2327.57 1895.58 2325.99 1898.07 2324.57 1896.98C2317.93 1891.93 2311.34 1885.46 2303.99 1880.78C2302.99 1880.13 2301.61 1884.85 2300.11 1883.96C2293.12 1879.83 2285.87 1874.51 2280.66 1868.01C2279.38 1866.4 2282.31 1864.48 2282.54 1863.45C2283.92 1857.18 2275.83 1861.82 2275.24 1861.57C2272.78 1860.63 2270.52 1859.37 2268.56 1858.03C2259.48 1851.8 2254.86 1842.21 2243.51 1837.01C2242.75 1836.69 2232.19 1839.94 2234.99 1832.09C2235.17 1831.56 2238.16 1823.63 2232.82 1826.34C2232.49 1826.51 2231.17 1830.79 2229.14 1828.57C2227.12 1826.35 2221.65 1825.39 2221.46 1819.26C2221.38 1817.32 2224.28 1809.27 2217.19 1811.59C2216.73 1811.79 2202.68 1818.72 2207.64 1809.8C2208.46 1808.33 2215.71 1800.67 2208.68 1801.66C2207.32 1801.86 2206.95 1804.69 2204.23 1804.23C2200.04 1803.52 2198.43 1798.25 2191.99 1798.71C2190.87 1798.8 2183.56 1801.79 2185.33 1796C2185.61 1795.1 2188.59 1793.07 2187.85 1791.83C2184.33 1785.93 2177.69 1782.8 2174.64 1776.35C2173.56 1774.06 2178.42 1770.87 2177.77 1768.07C2177.12 1765.27 2174.69 1760.72 2171.06 1760.72C2167.4 1760.69 2162.87 1769.05 2159.63 1766.75C2145.55 1756.72 2138.18 1740.64 2127.93 1727.48C2126.4 1725.51 2125.27 1729.19 2122.84 1726.43C2113.89 1716.38 2096.87 1700.07 2095.3 1686.69C2094.06 1676.03 2104.45 1682.62 2101.95 1675.69C2100.74 1672.35 2090.14 1675.84 2089.38 1675.38C2083.08 1671.72 2082.36 1666.13 2079.11 1661.44C2078.48 1660.53 2077.75 1659.65 2076.85 1658.84C2075.74 1657.83 2073.16 1661.53 2072.25 1660.64C2069.1 1657.62 2067.97 1652.84 2065.31 1649.79C2064.1 1648.4 2061.66 1650.6 2060.86 1649.07C2058.96 1645.5 2057.95 1641.75 2058.16 1636.82C2058.18 1636.36 2062.88 1635.94 2061.27 1633.44C2058.62 1629.37 2057.61 1622.77 2051.88 1620.1C2050.17 1619.31 2044.02 1623.55 2046.19 1617.7C2046.64 1616.48 2054.51 1612.07 2045.81 1613.19C2044.35 1613.36 2031.84 1613.76 2035.38 1607.08C2036.32 1605.33 2041.02 1599.26 2038.94 1598.3C2038.64 1598.19 2035.97 1601.37 2034.71 1600.25C2030.33 1596.27 2027.23 1591.07 2022.82 1586.9C2021.64 1585.79 2019.57 1590.1 2017.91 1588.36C2013.37 1583.64 2009.63 1576.32 2007.13 1570.35C2006.22 1568.14 2009.97 1567.55 2010.18 1567.2C2013.67 1561.51 2005.97 1564.78 2005.06 1564.3C1999.52 1561.24 2000.3 1555.5 1996.55 1551.75C1995.52 1550.71 1992.84 1553.74 1992.39 1553.69C1987.9 1553.12 1994.97 1551.04 1994.57 1549.05C1993.46 1543.46 1989.95 1538.76 1986.58 1534.59C1985.34 1533.06 1982.77 1537.4 1981.71 1536.01C1975.31 1527.76 1969.74 1518.46 1966.31 1508.57C1965.68 1506.71 1969.26 1505.82 1969.72 1505.05C1972.92 1499.72 1964.34 1500.47 1963.23 1500.08C1958.16 1498.33 1959.88 1495.28 1957.39 1492.45C1945.17 1478.67 1935 1458.46 1927.16 1443.06C1925.04 1438.91 1923.1 1434.88 1921.27 1430.97C1914.35 1416.18 1908.76 1402.92 1899.68 1388.77C1898.95 1387.63 1895.62 1391.15 1894.95 1390.2C1886.4 1377.81 1880.57 1364.08 1871.94 1351.59C1871.24 1350.56 1868.29 1354.29 1867.04 1352.71C1864.43 1349.47 1862.1 1344.85 1861.29 1340.51C1860.9 1338.42 1865.52 1338.94 1865.06 1336.87C1864 1332.05 1861.82 1327.48 1858.83 1323.51C1857.56 1321.84 1855.12 1326.76 1853.77 1324.42C1844.53 1308.47 1835.24 1292.64 1832 1272.93C1831.77 1271.57 1839.5 1266.53 1836.71 1264.81C1834.34 1265.74 1831.65 1267.06 1829.17 1268.16C1821.03 1253.38 1814.64 1237.58 1809.18 1219.7C1806.07 1209.22 1803.26 1198.65 1800.31 1188.08C1799.99 1186.93 1795.92 1190.29 1795.28 1188.07C1791.58 1175.28 1786.95 1162.91 1788.63 1148.51C1788.8 1147.09 1797.27 1145.87 1795.17 1142.34C1794.78 1141.68 1792.45 1136.18 1790.32 1134.98C1790 1134.83 1786.31 1136.7 1785.81 1134.82C1783 1123.93 1781.87 1111.99 1782.74 1100.44C1782.9 1098.59 1787.36 1099.95 1787.51 1098.61C1788.51 1089.25 1784.24 1079.63 1787.49 1070.32C1789.7 1064.09 1797.18 1065.96 1804.24 1062.5C1805.24 1062.09 1805.28 1058.37 1809.49 1058.11C1820.05 1057.49 1831.65 1058.79 1842.9 1057.9C1845.31 1057.64 1842.68 1054.34 1848.55 1056.23C1848.94 1056.37 1850.93 1058.88 1852.95 1059.51C1854.35 1059.93 1858.59 1058.95 1860.38 1059.8C1862.17 1060.6 1858.64 1061.82 1860.8 1063.32C1862.99 1064.78 1867.78 1063.8 1868.58 1066.9ZM2393.26 1912.61C2392.83 1907.56 2384.6 1920.05 2389.26 1918.72C2389.5 1918.64 2393.28 1912.86 2393.26 1912.61ZM2724.16 2067.96C2722.43 2060.46 2716.86 2068.84 2717.93 2074.55C2719.03 2080.26 2724.69 2070.23 2724.16 2067.96ZM2764.75 2075.48C2764.41 2074.76 2764.02 2074.38 2763.6 2074.28C2760.71 2073.58 2756.54 2086.44 2759.89 2086.85C2760.21 2086.89 2760.59 2086.81 2761.06 2086.61C2761.4 2086.46 2764.92 2075.85 2764.75 2075.48ZM1807.24 1076.4C1807.43 1076.34 1807.4 1073.79 1807.21 1073.76C1802.36 1072.79 1802.41 1077.94 1807.24 1076.4ZM2805.28 2081.23C2804.6 2078.1 2799.77 2080.26 2800.6 2084.16C2801.27 2087.3 2806.13 2085.13 2805.28 2081.23ZM2272.46 1810.64C2272.56 1810.43 2271.32 1809.19 2270.56 1810.2C2268.13 1813.45 2270.75 1814.07 2272.46 1810.64ZM2872.32 2096.47C2862.57 2093.57 2860.3 2075.15 2870.63 2079.4C2872.5 2080.17 2865.25 2083.96 2867.4 2086.04C2871.34 2089.83 2876.66 2079.72 2880.07 2086.47C2880.68 2087.71 2872.87 2096.68 2872.3 2096.49C2872.3 2096.49 2872.31 2096.48 2872.32 2096.47ZM2401.21 1896.41C2401.26 1896.21 2399.31 1894.79 2399.16 1894.93C2395.55 1898.28 2399.48 1901.15 2401.21 1896.41ZM2203.08 1736.69C2203.27 1736.3 2199.69 1732.09 2199.29 1732.23C2191.69 1735.56 2199.01 1744.2 2203.08 1736.69ZM2546.48 1967.63C2550.96 1964.56 2553.95 1965.44 2553.12 1971.73C2550.95 1970.29 2548.66 1969.08 2546.48 1967.63Z" fill="#FC6868"/>
<path d="M0.083168 1568.7C-0.706993 1545.56 4.2621 1516.35 9.41566 1495.86C11.0197 1489.42 13.1325 1493.06 14.3734 1488.65C16.8225 1479.97 16.9513 1471.63 19.7326 1463.21C20.6773 1460.37 24.1518 1464.71 25.0362 1461.79C29.8527 1445.88 31.8586 1430.37 36.1528 1414.24C48.9959 1366.17 61.9112 1319.19 75.1012 1271.82C83.655 1241.17 92.359 1210.38 101.338 1179.31C108.853 1153.28 121.06 1122.5 126.758 1095.2C127.426 1091.98 123.358 1092.9 123.228 1092.22C121.313 1081.55 127.621 1086.7 130.244 1080.84C140.669 1057.46 148.395 1030.73 153.541 1006.92C155.706 996.846 145.886 1004.83 152.628 995.933C153.089 995.313 156.156 998.885 157.318 996.272C159.949 990.325 162.549 978.432 164.186 973.74C167.363 964.697 167.769 963.107 170.256 954.429C173.693 942.566 179.58 928.881 182.347 915.881C182.928 913.097 178.043 915.616 178.623 911.075C179.206 906.521 182.808 895.105 184.824 891.483C186.841 887.859 189.402 890.377 190.293 889.888C197.769 885.908 193.456 870.267 193.746 868.499C199.273 836.275 211.634 810.838 220.152 781.545C226.596 759.35 232.066 735.06 238.499 714.053C246.227 688.866 254.609 668.325 261.611 643.684C262.349 641.103 256.927 642.759 257.82 639.605C267.343 605.982 277.928 572.912 291.23 540.61C292.559 537.401 295.201 542.879 296.765 539.75C306.34 520.236 324.183 490.634 310.848 473.067C311.425 471.514 312.013 469.928 312.613 468.324C317.344 455.595 322.815 441.615 329.378 431.779C334.151 424.638 335.957 433.686 337.316 423.277C337.626 420.939 332.936 422.581 333.684 419.172C336.77 405.031 343.075 390.026 345.697 375.779C346.214 372.898 342.599 372.546 342.267 371.533C339.676 363.014 351.398 355.027 352.868 352.647C363.451 335.952 366.445 321.806 372.59 304.873C374.022 300.942 367.883 303.995 369.098 300.165C375.495 280.239 383.405 259.968 392.805 241.488C394.896 237.414 397.164 242.776 398.354 240.914C403.597 232.61 397.218 227.93 402.232 219.837C403.268 218.166 406.078 220.472 406.563 220.286C414.157 217.421 408.18 209.671 408.528 208.331C413.131 190.478 425.813 183.356 431.95 166.867C432.683 164.891 426.719 167.358 429.021 161.933C435.517 146.638 443.058 131.268 451.321 116.464C462.881 95.7227 476.049 75.7684 491.222 57.9793C495.278 53.2684 495.348 58.8109 495.916 58.7145C504.72 57.3753 500.419 49.0769 501.456 47.2305C509.782 32.8779 525.081 27.2109 527.868 12.0581C529.897 10.5781 531.975 9.13725 534.097 7.74906C537.371 5.62401 540.915 3.43448 546.209 1.62967C551.05 -0.045866 560.747 -1.79559 569.561 3.9256C570.931 4.68429 574.085 7.48085 575.257 9.33301C576.046 10.4551 576.442 11.1749 576.855 11.9655C577.055 12.3535 577.238 12.7342 577.405 13.1074C577.548 13.4264 577.658 13.687 577.772 13.9706C577.997 14.5277 578.193 15.0686 578.371 15.5999C578.52 16.0502 578.635 16.4287 578.754 16.8386C578.871 17.2423 578.979 17.6443 579.082 18.0485C579.165 18.3775 579.239 18.6884 579.314 19.012C579.919 21.7044 580.192 23.5873 580.502 25.7075C581.056 29.6521 581.455 33.3896 581.831 37.0646C582.579 44.4773 583.19 51.5142 583.797 58.707C584.994 73.0166 586.085 87.3807 586.918 101.516C588.574 129.764 589.268 158.494 587.047 186.833C586.992 187.648 582.721 186.46 582.63 188.086C581.526 208.253 587.754 203.523 596.516 216.3C598.73 219.729 589.716 229.889 589.07 230.884C586.673 234.247 580.25 231.298 579.813 232.402C576.406 241.478 596.923 239.276 597.629 250.901C597.617 251.274 593.736 249.944 593.42 250.962C592.423 254.125 594.115 257.143 592.997 260.328C590.413 267.732 580.555 270.656 587.007 280.965C587.844 282.302 599.386 279.426 599.484 290.401C599.517 294.848 600.808 313.324 600.382 319.005C599.944 324.467 595.966 320.982 595.826 321.379C591.671 335.636 589.3 330.476 582.353 338.027C575.439 345.652 592.818 342.648 594.944 345.496C595.716 346.539 595.746 348.652 595.412 351.071C594.814 355.049 593.101 359.931 592.288 361.609C591.009 364.243 588.434 361.199 587.758 363.516C583.363 378.995 596.83 369.681 599.899 374.558C607.182 386.375 594.697 395.623 594.063 406.742C593.89 409.721 596.706 407.134 597.135 409.759C598.799 420.271 595.078 426.187 599.472 437.841C600.183 439.655 608.553 449.113 603.162 455.285C602.386 456.188 599.013 453.94 598.536 458.309C597.819 464.823 597.789 476.704 599.281 483.842C600.382 489.066 605.372 482.843 604.085 489.372C603.509 492.274 600.089 487.148 599.268 492.591C598.444 497.985 599.373 511.871 599.787 517.251C600.202 522.6 604.077 519.44 604.374 519.856C606.089 522.5 608.603 532.312 608.649 533.217C611.727 578.622 607.25 620.259 611.997 664.224C612.362 667.654 616.495 665.122 616.595 665.643C619.048 677.35 607.189 668.67 603.864 677.161C612.445 675.478 611.154 680.441 612.579 688.819C613.273 692.86 616.497 690.456 616.861 690.808C622.282 696.441 615.941 700.879 614.657 702.023C609.933 706.208 616.016 710.15 612.863 713.015C609.734 715.879 604.523 709.985 605.036 717.968C608.259 720.037 616.015 713.641 617.669 719.642C623.931 742.439 619.989 785.497 620.353 803.698C620.723 822.013 621.648 828.257 621.12 838.809C620.177 858.115 625.784 850.746 629.208 862.592C632.635 874.518 617.535 869.481 614.457 871.396C611.38 873.284 614.752 874.967 613.127 877.197C611.502 879.42 609.084 874.94 608.711 879.977C608.337 884.988 614.737 898.059 618.156 899.646C625.399 902.956 632.437 896.433 630.581 909.686C630.47 910.449 626.448 908.218 626.218 911.131C624.536 934.523 625.662 957.839 624.323 981.185C624.132 984.381 619.652 981.794 619.492 983.643C617.794 1002.73 624.698 995.557 633.378 1005.53C622.477 1003.79 616.211 1009.91 616.966 1024.46C617.417 1033.21 622.038 1031.48 625.67 1036.92C626.763 1038.53 623.878 1044.83 626.153 1045.82C633.59 1049.08 641.358 1042.83 638.974 1057.9C638.858 1058.56 634.782 1056.7 634.67 1058.98C633.924 1073.68 641.591 1075.08 643.399 1090.87C644.81 1103.12 641.439 1125.41 641.492 1139.69C629.37 1140.13 632.888 1153.19 641.541 1158.12C641.714 1167.26 642.744 1177.14 642.091 1186.09C641.871 1189.18 638.252 1187.36 637.895 1187.77C632.286 1194.02 640.637 1197.61 641.064 1199.53C645.36 1220.62 640.197 1238.55 647.369 1258.67C647.626 1259.38 656.103 1260.07 650.269 1265.87C649.866 1266.24 645.659 1259.73 645.905 1269.33C646.149 1278.93 642.667 1297.34 647.325 1310.57C648.444 1313.73 655.732 1321.48 650.768 1328.33C650.093 1329.24 647.627 1328.42 646.356 1329.76C642.309 1334.07 650.936 1335.81 643.985 1341.02C637.035 1346.22 632.192 1356.53 637.941 1369.76C638.11 1370.18 645.027 1372.97 645.16 1377.2C645.365 1383.94 644.505 1393.61 644.949 1400.67C645.164 1404.05 649.225 1401.65 649.335 1402.23C652.974 1424.93 650.154 1441.19 649.92 1465.67C649.868 1470.14 656.309 1482.77 652.285 1491.59C647.885 1501.33 626.791 1492.76 632.923 1514.27C635.38 1522.94 662.076 1532.67 649.474 1549.23C654.56 1579.6 649.273 1608.47 655.802 1638.89C656.093 1640.26 663.616 1644.22 663.703 1647.48C663.818 1652.32 660.57 1655.17 660.544 1658.64C660.346 1673.15 664.006 1686.13 664.351 1700.1C664.49 1705.4 660.869 1703.75 661.034 1710.07C661.202 1716.38 666.073 1720.36 664.325 1729C662.99 1735.53 653.899 1742.51 653.287 1751.13C662.637 1750.92 662.781 1756.8 665.844 1767.12C666.438 1769.1 669.562 1766.76 670.01 1767.69C671.906 1771.46 669.42 1775.2 671.453 1778.77C671.942 1779.64 675.131 1779.5 675.711 1780.2C680.761 1786.16 674.179 1796.76 673.032 1798.59C668.678 1805.59 673.004 1808.49 671.434 1813.76C669.864 1819.02 667.088 1811.45 666.302 1817.54C664.677 1830.15 666.117 1846.21 666.699 1858.86C666.952 1863.91 671.007 1860.22 671.142 1860.94C672.823 1871.33 668.908 1882.17 677.716 1887.48C656.227 1896 680.205 1893.67 676.683 1908.88C676.396 1910.08 666.122 1912.17 664.341 1907.74C662.56 1903.31 665.402 1896.26 662.669 1890.12C662.027 1888.66 651.828 1880.71 651.173 1879.58C646.053 1870.75 661.46 1868.57 662.283 1868.04C671.145 1862.06 660.088 1852.28 659.208 1849.58C655.175 1837.25 656.738 1826.45 653.773 1816.11C651.851 1809.35 641.672 1809.26 641.673 1803.87C641.673 1785.95 655.46 1778.87 642.225 1762.7C639.402 1759.24 628.524 1763.46 636.497 1750.02C637 1749.17 644.422 1739.1 639.061 1733.85C638.385 1733.19 635.156 1733.4 634.832 1732.49C632.725 1726.45 635.062 1722.17 633.444 1715.51C631.826 1708.85 629.525 1700.87 630.182 1693.14C630.573 1688.48 636.253 1682.21 637.6 1679.92C641.488 1673.44 634.147 1667.17 639.065 1662.99C644.008 1658.78 652.29 1665.99 655.041 1655.53C646.627 1655.63 637.963 1655.25 629.488 1655.12C628.497 1632.59 629.963 1610.56 628.302 1587.95C628.089 1585.16 623.74 1588.27 623.394 1585.29C621.958 1572.7 624.547 1561.5 622.523 1548.53C620.938 1538.46 615.526 1527.56 613.72 1517.04C622.955 1510.01 618.805 1494.55 619.034 1483.08C619.109 1479.04 621.689 1479.17 622.364 1476.26C624.847 1465.33 616.647 1470.85 615.144 1467.98C608.727 1455.67 627.874 1453.49 626.557 1438.67C626.494 1437.89 615.71 1428.87 614.997 1427.58C610.359 1419.34 618.482 1425.98 618.938 1420.63C619.772 1410.88 621.837 1404.03 618.197 1392.9C617.122 1389.66 610.293 1382.13 614.869 1375.47C615.467 1374.6 618.878 1374.87 619.038 1374.19C621.649 1361.76 610.992 1361.97 606.994 1355.16C602.994 1348.32 609.723 1337.08 611.714 1334.76C616.862 1328.69 614.303 1339.04 614.858 1339.32C621.457 1342.63 619.91 1334.79 620.109 1328.74C630.487 1327.28 629.385 1318.9 620.274 1322.47C619.28 1322.88 620.517 1327.5 620.109 1328.74C609.578 1324.01 607.752 1314.95 616.726 1304.06C620.935 1298.99 626.416 1303.23 623.679 1288.74C622.442 1282.17 615.407 1285.13 613.12 1279.41C607.902 1266.36 613.624 1248.7 611.788 1234.94C611.123 1229.97 607.468 1235.05 606.878 1231.66C605.3 1222.67 607.799 1214.54 605.779 1205.59C605.591 1204.78 601.589 1207.01 601.378 1204.2C599.688 1182.74 601.269 1163.91 600.087 1141.64C599.506 1130.74 596.147 1111.53 595.977 1100.38C595.656 1081.04 600.279 1056.57 597.904 1040.27C596.366 1029.54 592.381 1032.08 589.316 1027.6C583.374 1018.9 592.219 1002.55 593.608 1000.35C593.654 1000.28 595.146 1009.51 596.98 1004.43C601.219 1001.31 593.633 1000.45 593.608 1000.35C594.502 998.886 594.399 980.412 593.398 976.653C592.855 974.658 589.02 976.007 588.81 974.963C583.916 950.198 581.531 925.479 581.933 900.132C581.987 899.685 586.385 900.105 586.457 899.059C587.583 884.507 581.715 875.33 577.869 863.444C574.024 851.566 574.551 842.044 581.641 834.584C580.182 825.453 582.754 812.177 584.342 804.602C585.93 797.02 577.383 796.473 577.178 795.825C570.658 775.737 574.823 763.155 574.394 742.086C574.193 731.869 571.817 711.648 570.278 700.887C569.052 692.455 570.73 686.825 569.007 678.906C568.775 677.829 565.058 679.141 564.894 678.817C559.866 670.119 569.349 673.904 570.895 671.964C576.519 664.949 579.482 660.658 576.021 649.529C575.223 646.881 561.479 639.858 560.428 635.08C559.086 628.868 563.989 630.957 562.464 624.494C562.338 623.943 559.402 624.22 559.305 620.202C558.824 601.723 559.354 580.775 557.963 561.49C557.781 558.796 553.311 562.515 552.971 558.631C551.385 540.472 550.443 520.878 551.62 503.095C551.927 498.768 555.348 501.275 556.265 500.288C561.809 494.242 552.821 486.699 552.576 485.249C546.621 453.013 552.965 428.604 547.37 395.567C547.054 393.841 537.123 380.739 544.598 373.992C545.095 373.536 552.762 366.962 546.971 362.002C546.608 361.697 542.695 365.649 542.738 359.143C542.749 357.653 542.579 355.972 542.361 354.163C541.609 347.709 540.309 339.777 543.401 332.695C544.666 329.797 552.278 322.673 545.384 314.291C544.902 313.692 529.71 301.482 539.387 296.277C540.979 295.415 551.553 295.51 545.542 285.52C544.379 283.628 542.241 287.306 540.469 282.261C537.753 274.734 539.934 263.846 534.668 254.562C533.737 252.942 526.169 246.376 531.233 240.086C532.027 239.124 535.647 240.638 535.855 237.548C536.877 223.162 533.606 208.286 535.105 193.147C535.639 187.94 541.484 190.194 542.676 184.825C543.848 179.117 544.636 168.331 541.671 162.734C538.704 157.136 530.048 163.93 528.779 155.505C523.204 118.971 526.245 81.5141 523.631 46.4408C523.233 41.6549 520.436 45.647 519.561 38.8761C519.317 37.088 518.972 34.9683 518.739 33.9917C518.679 33.7302 518.637 33.5934 518.628 33.6176C518.625 33.6352 518.636 33.714 518.666 33.8627C518.681 33.939 518.699 34.0226 518.728 34.1456C518.762 34.2872 518.806 34.4594 518.863 34.6648C519.122 35.4752 519.328 36.7062 521.131 40.4355C521.626 41.4259 522.224 42.5201 522.972 43.7185C523.914 45.2283 525.087 46.8731 526.443 48.4805C529.274 52.0165 534.274 55.8514 535.961 56.8306C541.996 60.8425 550.13 62.8604 555.638 62.8644C561.284 62.9468 564.687 61.9492 566.811 61.2963C570.951 59.8585 571.13 59.3678 570.977 59.6317C559.07 68.2498 542.61 89.9672 530.108 100.557C515.185 113.463 524.631 90.9832 514.801 102.191C510.024 107.756 515.155 119.852 514.581 121.504C511.473 130.598 507.129 137.193 502.832 143.835C499.436 149.103 496.123 154.28 493.626 160.63C492.445 163.642 497.671 162.762 496.648 165.263C493.199 173.817 487.293 181.767 483.901 190.004C482.375 193.739 485.66 194.407 483.933 197.621C479.821 205.386 475.424 212.067 469.253 218.802C468.684 219.433 467.04 212.882 464.308 218.966C459.95 228.71 452.116 239.975 450.487 252.676C450.005 256.483 456.899 259.318 449.255 264.805C447.669 265.939 439.99 260.9 443.973 272.185C444.611 274.095 448.901 292.339 439.989 297.102C437.656 298.308 428.912 300.85 428.521 305.306C428.49 305.932 433.076 305.044 432.195 308.619C428.931 321.461 424.053 333.933 420.768 347.175C419.932 350.619 425.579 347.012 424.205 352.117C420.317 366.491 413.514 383.202 407.662 396.596C405.538 401.409 403.428 396.885 402.953 397.126C395.232 401.035 401.84 407.19 401.635 409.326C400.365 422.258 393.612 430.473 390.935 441.998C390.174 445.217 394.62 444.203 394.749 444.936C395.887 452.476 390.75 445.529 388.706 449.322C382.981 459.874 379.186 472.737 375.976 484.491C374.788 488.854 380.653 485.384 379.536 489.291C379.512 489.374 379.489 489.456 379.466 489.539C373.114 512.101 365.397 535.326 356.187 556.687C354.459 560.656 351.918 557.039 350.891 557.66C343.729 561.92 348.303 572.964 348.371 575.216C348.711 585.399 344.705 587.926 342.767 596.248C333.392 636.76 316.816 684.928 304.503 722.097C288.483 770.518 274.242 807.476 261.607 854.412C260.801 857.393 266.13 855.688 265.493 858.274C257.063 891.597 246.037 923.63 237.978 957.117C237.308 959.866 242.657 957.142 241.725 961.592C239.846 970.721 236.432 981.974 232.535 990.663C230.645 994.893 228.662 987.953 226.834 992.232C222.585 1002.14 219.158 1013.25 216.894 1024.02C215.939 1028.61 222.173 1023.02 220.595 1028.89C209.9 1069.05 199.837 1108.69 183.301 1147.7C182.166 1150.38 172.68 1150.37 172.786 1156.76C175.121 1157.87 178.017 1158.62 180.59 1159.52C169.966 1203.43 157.157 1246.4 145.302 1289.42C141.18 1304.42 137.293 1318.94 133.549 1333.93C132.933 1336.4 138.681 1333.27 137.517 1338.05C130.823 1365.59 125.876 1392.96 115.138 1420C114.069 1422.75 105.998 1419.6 105.522 1428.11C105.466 1429.48 103.963 1442.36 105.151 1445.91C105.336 1446.4 109.705 1444.9 109.003 1448.98C104.958 1472.22 99.5755 1496.51 93.9245 1518.94C93.0005 1522.62 89.3549 1518.05 88.6647 1520.66C83.7831 1539.27 85.1385 1558.74 81.0458 1576.4C80.9869 1576.65 80.9264 1576.89 80.864 1577.13C77.8845 1588.7 70.793 1584.2 63.5986 1590.59C62.5561 1591.54 62.2957 1599.19 58.1063 1599.54C47.5321 1600.58 35.9836 1596.62 24.7089 1598.15C23.4992 1598.34 23.5036 1600.97 23.1877 1603.76C23.1185 1604.54 23.0003 1605.23 22.9704 1606.82C23.0034 1607.71 22.8461 1608.51 23.5717 1611.77C23.6755 1612.2 23.7974 1612.65 23.9419 1613.13C24.1265 1613.74 24.4028 1614.53 24.7264 1615.31C25.0795 1616.15 25.3646 1616.81 26.0067 1617.98C26.7242 1619.27 27.645 1620.66 28.7759 1622.02C29.0582 1622.36 29.3528 1622.7 29.6586 1623.04C29.9718 1623.38 30.2439 1623.67 30.7462 1624.15C31.657 1625.03 32.6521 1625.86 33.6825 1626.61C35.8197 1628.13 37.6797 1629.11 40.0247 1630C44.4822 1631.6 46.9153 1631.59 48.0318 1631.72C49.1552 1631.8 49.215 1631.83 49.2663 1631.87C49.2821 1631.91 49.3028 1631.95 49.2439 1632C49.144 1632.03 48.976 1632.12 47.3321 1632.07C45.832 1631.98 41.8768 1631.77 36.8459 1629.32C25.461 1622.99 24.2508 1616.37 22.8948 1613.79C22.4114 1612.55 22.1059 1611.6 21.848 1610.73C21.6435 1610.08 21.4722 1609.49 21.3227 1608.95C20.3489 1605.58 19.8539 1604.99 19.0558 1603.62C18.5946 1602.41 16.7202 1594.44 14.7703 1592.51C13.4159 1591.14 9.10427 1593.5 7.38762 1590.73C5.67427 1587.95 9.31048 1585.09 7.33653 1580.55C6.08505 1577.76 3.69825 1577.45 1.99391 1575.38C0.974449 1574.2 0.191868 1572.34 0.083168 1568.7ZM591.417 770.359C595.102 763.163 580.113 762.98 584.109 770.309C584.32 770.663 591.238 770.73 591.417 770.359ZM641.227 1609.95C647.297 1600.54 637.256 1594.82 632.537 1601.54C627.823 1608.25 639.387 1612.81 641.227 1609.95ZM651.409 1703.72C655.994 1692.82 634.726 1692.36 639.657 1703.47C639.936 1704.12 651.143 1704.36 651.409 1703.72ZM62.4293 1559.97C62.2182 1560.02 61.7577 1565.43 61.9565 1565.61C66.5636 1568.67 67.4664 1557.95 62.4293 1559.97ZM661.997 1796.79C664.671 1793.32 660.819 1784 657.493 1788.31C654.818 1791.77 658.671 1801.11 661.997 1796.79ZM586.792 407.458C587.008 407.331 586.974 403.257 585.721 403.414C581.687 403.917 583.156 409.515 586.792 407.458ZM671.39 1955.44C670.83 1931.94 687.497 1916.72 687 1942.36C686.91 1947.01 680.846 1932.72 679.61 1938.7C677.36 1949.63 688.755 1956.15 683.508 1967.48C682.546 1969.53 671.383 1956.78 671.363 1955.4C671.372 1955.41 671.381 1955.42 671.39 1955.44ZM609.125 765.337C609.315 765.185 609.188 759.6 608.985 759.48C604.075 756.729 604.328 767.978 609.125 765.337ZM582.029 172.167C582.428 171.784 582.016 159.091 581.59 158.529C573.415 152.315 574.252 178.388 582.029 172.167ZM641.181 1139.93C646.294 1145.77 647.26 1152.91 641.545 1158.09C641.523 1152.04 641.232 1146.05 641.181 1139.93Z" fill="#FC6868"/>
</svg>
