<svg width="314" height="216" viewBox="0 0 314 216" fill="none" xmlns="http://www.w3.org/2000/svg">
<path d="M301.5 145.621C301.5 115.837 278.316 90.5091 248.723 87.9623C247.191 87.8292 245.78 87.0943 244.792 85.9136C243.809 84.7328 243.33 83.216 243.463 81.6823C243.58 80.3238 243.655 78.9458 243.685 77.558L243.7 76.1671C243.7 41.3381 215.62 12.9476 180.94 12.5061L180.12 12.5C154.232 12.5 131.141 27.9944 121.292 51.9674C120.587 53.6805 119.107 54.9596 117.304 55.3938C115.483 55.8163 113.598 55.359 112.188 54.1609C106.974 49.6929 100.304 47.228 93.4204 47.2279C77.485 47.2279 64.5202 60.21 64.5202 76.1671C64.5202 78.0421 64.6996 79.9286 65.0579 81.7747C65.3584 83.3025 65.023 84.8828 64.1447 86.1677C63.2661 87.4526 61.9078 88.321 60.3761 88.5873C32.6324 93.3969 12.5002 117.382 12.5 145.621C12.5 177.535 38.4297 203.5 70.3005 203.5H247.803C248.173 203.384 248.56 203.296 248.959 203.262C278.443 200.601 300.792 176.55 301.483 147.031L301.5 145.621Z" stroke="#FF8C00" stroke-width="25" stroke-linejoin="round"/>
</svg>
